# xmcd
#
# Track frame offsets:
#	150
#	21320
#	34504
#	50755
#	68910
#	88661
#	106806
#	120458
#	133834
#	155064
#	165226
#	189683
#	206261
#	218858
#	231433
#	247545
#	262246
#	277982
#	295857
#	313724
#
# Disc length: 4433 seconds
#
# Revision: 0
# Processed by: cddbd v1.5.2PL0 Copyright (c) Steve Scherf et al.
# Submitted via: dBpowerAMP V4.0
#
DISCID=21114f14
DTITLE=John Denver - The Country Roads Collection [CD2]
DYEAR=1997
DGENRE=Country
TTITLE0=Rocky Mountain High
TTITLE1=For Baby (For Bobbie)
TTITLE2=Goodbye Again
TTITLE3=We Don't Live Here No More
TTITLE4=I'd Rather Be A Cowboy (Lady's Chains)
TTITLE5=Farewell Andromeda (Welcome To My Morning)
TTITLE6=Rocky Mountain Suite (Cold Nights In Canada)
TTITLE7=Annie's Song
TTITLE8=Back Home Again
TTITLE9=Grandma's Feather Bed
TTITLE10=Sweet Surrender
TTITLE11=Eclipse
TTITLE12=Thank God I'm A Country Boy
TTITLE13=This Old Guitar
TTITLE14=Spirit
TTITLE15=Song Of Wyoming
TTITLE16=I'm Sorry
TTITLE17=Windsong
TTITLE18=Looking For Space
TTITLE19=Fly Away
EXTD=Amazon entry:  http://www.amazon.com/Country-Roads-Collection-John-Denver/dp/B000002X27/ref=pd_bbs_sr_1/104-0879035-9642350?ie=UTF8&s=music&qid=1183584743&sr=1-1
EXTT0=
EXTT1=
EXTT2=
EXTT3=
EXTT4=
EXTT5=
EXTT6=
EXTT7=
EXTT8=
EXTT9=
EXTT10=
EXTT11=
EXTT12=
EXTT13=
EXTT14=
EXTT15=
EXTT16=
EXTT17=
EXTT18=
EXTT19=
PLAYORDER=
